<svg id="Слой_1" data-name="Слой 1" xmlns="http://www.w3.org/2000/svg" xmlns:xlink="http://www.w3.org/1999/xlink" viewBox="0 0 1005.8 844.52"><defs><style>.cls-1{fill:#b98661;}.cls-2{fill:url(#linear-gradient);}.cls-3{fill:url(#linear-gradient-2);}.cls-4{fill:url(#linear-gradient-3);}.cls-5{fill:url(#linear-gradient-4);}.cls-6{fill:#473a31;}.cls-7{fill:url(#linear-gradient-5);}.cls-8{fill:#866d5c;}.cls-9{fill:url(#linear-gradient-6);}.cls-10{fill:url(#linear-gradient-7);}.cls-11{fill:url(#linear-gradient-8);}.cls-12{fill:url(#linear-gradient-9);}.cls-13{fill:url(#linear-gradient-10);}.cls-14{fill:#323657;}.cls-15{fill:#706865;}.cls-16{fill:#b59074;}.cls-17{fill:#eea886;}.cls-18{fill:#515269;}.cls-19{fill:#6a6b8a;}.cls-20{fill:#c4c6d1;}.cls-21{fill:#34395c;}.cls-22{fill:#eddcc5;}.cls-23{fill:#494f80;}.cls-24{fill:#403429;}.cls-25{fill:#fff;}.cls-26{fill:#a77860;}.cls-27{fill:#ccc;}.cls-28{fill:#918783;}.cls-29{fill:#5e5854;}.cls-30{fill:#bfb2ac;}.cls-31{fill:#757d28;}.cls-32{fill:#5c9e33;}.cls-33{fill:#4d8b33;}.cls-34{fill:#b1c265;}.cls-35{fill:#92a05b;}.cls-36{fill:#c7ca7f;}.cls-37{fill:#518330;}.cls-38{fill:#6c9f44;}.cls-39{fill:#4a8a33;}.cls-40{fill:#689c2f;}.cls-41{fill:#478b33;}.cls-42{fill:#61a23e;}.cls-43{fill:#5c9b3b;}.cls-44{fill:#31535f;}.cls-45{fill:#27434c;}</style><linearGradient id="linear-gradient" x1="860.2" y1="1365.8" x2="890.57" y2="1365.8" gradientUnits="userSpaceOnUse"><stop offset="0" stop-color="#a16f44"/><stop offset="1" stop-color="#c99675"/></linearGradient><linearGradient id="linear-gradient-2" x1="888.36" y1="1204.12" x2="781.08" y2="1415.32" xlink:href="#linear-gradient"/><linearGradient id="linear-gradient-3" x1="888.99" y1="1234.38" x2="952.66" y2="1169.43" xlink:href="#linear-gradient"/><linearGradient id="linear-gradient-4" x1="856.78" y1="1234.96" x2="813.6" y2="1170.45" xlink:href="#linear-gradient"/><linearGradient id="linear-gradient-5" x1="862.49" y1="1348.06" x2="866.98" y2="1256.33" gradientUnits="userSpaceOnUse"><stop offset="0.18" stop-color="#ebd5c8"/><stop offset="1" stop-color="#c99675"/></linearGradient><linearGradient id="linear-gradient-6" x1="916.92" y1="1203.79" x2="892.55" y2="1235.86" gradientUnits="userSpaceOnUse"><stop offset="0.18" stop-color="#ebd5c8"/><stop offset="1" stop-color="#ffc4c4"/></linearGradient><linearGradient id="linear-gradient-7" x1="823.23" y1="1210.86" x2="855.26" y2="1210.86" xlink:href="#linear-gradient-6"/><linearGradient id="linear-gradient-8" x1="918.46" y1="1207.91" x2="811.18" y2="1419.12" xlink:href="#linear-gradient"/><linearGradient id="linear-gradient-9" x1="893.58" y1="1224.36" x2="951.47" y2="1205.92" gradientUnits="userSpaceOnUse"><stop offset="0" stop-color="#a47248"/><stop offset="1" stop-color="#c99675"/></linearGradient><linearGradient id="linear-gradient-10" x1="853.1" y1="1228.58" x2="830.49" y2="1196.02" xlink:href="#linear-gradient"/></defs><title>21295</title><path class="cls-1" d="M758.23,1381.77s-9.16-12.5-25.68-14.11-30.63-9-20.37-33.35c0,0-2.4,15.39,3.53,18.12s26.2-2.41,39.8,10.58S758.23,1381.77,758.23,1381.77Z" transform="translate(-246.36 -1092.59)"/><path class="cls-2" d="M885.5,1331.4s-3.7,14.93-5.2,18.57-4.27,39.56,0,40,10.27,0,10.27,6.42-16.68,6.41-18.61,5.13-6.41-32.45-6.84-36.75-5.13-11.79-4.91-16.06S885.34,1322.88,885.5,1331.4Z" transform="translate(-246.36 -1092.59)"/><path class="cls-3" d="M899.65,1253c-2.71,10.06-6.46,15.4-4.81,46.29.35,6.45-1.57,14.55-5.13,22.88a97.86,97.86,0,0,1-11,19.19c-6.8,9.33-15.25,17.46-24.32,22.08-3.66,1.87-7.68,4.21-11.93,6.78h0c-22.12,13.4-50.62,33.36-68,27.62-20.74-6.84-21-32.28-16.89-53.45s26.09-41.91,35.28-45.33,31.43-13.47,32.71-17.53,12-7.7,15.19-17.11-2.36-21.38,1.28-35.49,25.55-15.08,27.47-18.93,8.56-5.34,8.56-5.34-4.81,4.17,3.53,5,13-1.47,16.67,5.67C906.82,1231.94,902,1244.33,899.65,1253Z" transform="translate(-246.36 -1092.59)"/><path class="cls-4" d="M896.66,1212.91s-1.24-4.17,6.09-9.3,33.47-13.31,34.11-9.94-17.07,33.19-34.11,39.12S896.66,1212.91,896.66,1212.91Z" transform="translate(-246.36 -1092.59)"/><path class="cls-5" d="M857.74,1215.12a11.88,11.88,0,0,0-4.27-7.18c-3.85-3.21-29.83-22.13-33.68-16.52s17.72,39.36,21.51,42.26S857.37,1223.9,857.74,1215.12Z" transform="translate(-246.36 -1092.59)"/><path class="cls-6" d="M864.64,1258.24a5.84,5.84,0,0,0,6.2-4.28c.64-2.35-2.46-3.52-6.2-3.2s-6,2-6,3.1S859.72,1258,864.64,1258.24Z" transform="translate(-246.36 -1092.59)"/><path class="cls-6" d="M878.32,1242.42c-.44-3.22,0-6.42,5.14-6.74s6.57,5.13,4.33,6.74S878.69,1245.07,878.32,1242.42Z" transform="translate(-246.36 -1092.59)"/><path class="cls-6" d="M858.52,1242.42c.44-3.22,0-6.42-5.13-6.74s-6.58,5.13-4.33,6.74S858.16,1245.07,858.52,1242.42Z" transform="translate(-246.36 -1092.59)"/><path class="cls-7" d="M889.71,1322.17a97.86,97.86,0,0,1-11,19.19c-6.8,9.33-15.25,17.46-24.32,22.08-3.66,1.87-7.68,4.21-11.93,6.78h0c9.61-10.12-2-52.29-4-59.18s4.23-15.08,8.4-21.5-1.12-9-1.12-9,3.21.49,6.9-3.2c3.43-3.44-1.31-8.54-2-9.23,3.25,3,9.26,4.36,20.23,3,10.54-1.32,14.76-7,15.12-7.49-3.76,5.62-2.58,16.81-3.23,24.65s6.46,4.31,6.73,4.17c-.19.12-4.55,2.75-.73,10.59C892.18,1309.94,889.82,1314.58,889.71,1322.17Z" transform="translate(-246.36 -1092.59)"/><path class="cls-8" d="M849.08,1265.72a13.29,13.29,0,0,0,8.39,5.11,17.77,17.77,0,0,0,4.94.12c1.7-.17,3.45-.32,5.16-.46s3.4-.27,5.08-.51a27.18,27.18,0,0,0,4.91-1.06,20.43,20.43,0,0,0,4.55-2.11,25.74,25.74,0,0,0,4-3.23,18.73,18.73,0,0,1-3.5,3.89,18.25,18.25,0,0,1-4.58,2.67,35.09,35.09,0,0,1-10.31,2l-5.15.37a17.19,17.19,0,0,1-5.34-.42,12.82,12.82,0,0,1-4.82-2.31A11.54,11.54,0,0,1,849.08,1265.72Z" transform="translate(-246.36 -1092.59)"/><path class="cls-9" d="M898,1214.9s2.53-7.47,9.42-10.22,23-8.93,23.33-6.6-17.06,28-27.81,32.54C903,1230.62,898.53,1229,898,1214.9Z" transform="translate(-246.36 -1092.59)"/><path class="cls-10" d="M855.06,1216.2s-21.48-23.18-29.92-22.53,13.77,34.59,17.15,34.4S856.87,1218.1,855.06,1216.2Z" transform="translate(-246.36 -1092.59)"/><path class="cls-11" d="M851.7,1336.45c.69,4.11.32,14.59-2.08,24.85s-2.57,31.76,0,31.44,10.74-1.77,10.58,4.49-5.45,7.37-9.94,7.53-12.35-.32-12.67-10.74-9.46-41.22-11.06-57.57-.81-28.23,5.13-30.79S849.94,1325.86,851.7,1336.45Z" transform="translate(-246.36 -1092.59)"/><path class="cls-1" d="M815.14,1321.18c4.2,8.25,18.16,16,6.74,38.72s-24.22,31.89-21.33,32.27,21.33-2.67,26.62,3.26-.64,7.86-9.63,9-48.26.32-51.79-2.24-4.09-10.29-7.14-15.9-7.06-33.5,3.61-55.47S806.8,1304.82,815.14,1321.18Z" transform="translate(-246.36 -1092.59)"/><path class="cls-12" d="M897,1213.34c0,.32,3.61-.38,3.82,1.39,0,0-1.85-.7-1.91,1.17s6.31,12.3,4.22,15.13-10.65-9-8.35-12.81S897,1213.34,897,1213.34Z" transform="translate(-246.36 -1092.59)"/><path class="cls-13" d="M841.44,1229a4.87,4.87,0,0,1,1.76-5c2.65-2.4,1.29-4.33,1.29-4.33s3,.23,1.84,2.68,3.61.29,4.65-2.11,3.45-5.86,5.29-4.33S851.06,1227.42,841.44,1229Z" transform="translate(-246.36 -1092.59)"/><rect class="cls-14" x="733.25" y="1386.42" width="203.16" height="18.61" transform="translate(-256.91 -1086.23) rotate(-0.43)"/><rect class="cls-14" x="857.82" y="1300.1" width="192.9" height="17.67" transform="translate(-822.88 746.09) rotate(-73)"/><rect class="cls-15" x="907.55" y="335.93" width="15.85" height="460.9"/><rect class="cls-16" x="714.29" y="1400.76" width="537.87" height="27.77" transform="translate(1720.09 1736.69) rotate(180)"/><rect class="cls-15" x="794.85" y="1428.53" width="15.85" height="460.9" transform="translate(1359.19 2225.36) rotate(180)"/><path class="cls-17" d="M727.29,1366.84s10.51,2.12,15.53,2.28,28.27-10.38,35.71-9.38,55.94,21.61,58.14,23.12-1,4.81-1,4.81L724.28,1389Z" transform="translate(-246.36 -1092.59)"/><path class="cls-18" d="M536.75,1835.73l-7.14,15.46s-30.09-11.22-30.24-11.59,8.28-21.47,8.28-21.47Z" transform="translate(-246.36 -1092.59)"/><path class="cls-19" d="M794.45,1835.4l8.33,24.33s-33,7.27-37.82,6.88c-.42,0-6.25-27.55-6.25-27.55Z" transform="translate(-246.36 -1092.59)"/><path class="cls-20" d="M761.27,1859.52s23.07-6.27,23.76-7.26,9.15-6.72,13.51-6,4.76,6,9.12,7,38.08,11.85,42.75,14.6,27-5.36,31.27.42,8.47,21-26.58,26.22-72.58,20.89-81,18.76S760,1868.87,761.27,1859.52Z" transform="translate(-246.36 -1092.59)"/><path class="cls-20" d="M497,1835.47s21.39,9.13,22.51,8.78,11,.39,13.92,3.58,0,7.41,2.73,10.85,17.93,23.62,22.39,28.28c3.65,3.81,23.66,7.37,30.08,14.08,4.84,5.06-.84,25.28-34.9,15.62-33.15-9.41-74.21-25.72-79.33-32.41S490.39,1841.83,497,1835.47Z" transform="translate(-246.36 -1092.59)"/><path class="cls-21" d="M518.93,1532.22s94.07,41.83,114,56.13,63.57,40.63,65,47.08,10.09.16-5.39,32.37-88.66,109.69-95.52,118.12c-7.15,8.78-57.91,61.41-57.91,61.41L501,1818.58s73.4-107.94,84-123.81,15.41-18.23,9.12-25.24-31.37-6.9-160.56-60.41c-12.91-5.35-48.93-17.74-53.68-35.07-8.58-31.32-1.22-71,33.5-88.48S518.93,1532.22,518.93,1532.22Z" transform="translate(-246.36 -1092.59)"/><path class="cls-17" d="M563.66,1229.42a13.89,13.89,0,0,0-2.66,4.52,110.86,110.86,0,0,0-4.16,12.36c-4.26,14.92-8.14,34.07-8.14,34.07s-53.1-44.48-45.49-47.3,12.5-16.3,12.5-16.3S569.34,1224.38,563.66,1229.42Z" transform="translate(-246.36 -1092.59)"/><path class="cls-22" d="M560.31,1384.37s-43.69,83.54-45.59,114.86-91.21-9.85-91.21-9.85Z" transform="translate(-246.36 -1092.59)"/><path class="cls-14" d="M514.89,1497.23l1,7.79,1.56,10.27h0c-1.35-.08-87.23-5.48-93.45-3.9s11.83-20.25,11.83-20.25Z" transform="translate(-246.36 -1092.59)"/><path class="cls-23" d="M517.45,1515.29s97.18,22.87,121.21,30.54,65.37,21.2,76.48,27.54c5.91,3.37,14.92,8.41,25.71,43.53,12.23,39.81,40.16,151.76,46.5,169.2,4,11,15.43,54,15.43,54l-49.66,8.61S694,1729.68,689.18,1698c-8.07-53.43-28.78-53.71-37.15-58.58s-48.65,4.27-192-7.16c-14.32-1.15-53.48-1.86-63.62-17.31-18.31-27.93-36.79-59.65-8.35-87.73S517.45,1515.29,517.45,1515.29Z" transform="translate(-246.36 -1092.59)"/><path class="cls-17" d="M582.64,1117s16.82,29,13,37S613.2,1181,609.69,1185s-10.76,9-10.63,10.15-6.22,39-14.48,39.89-64.68-2.08-69.36-19.73-18.44-56.31-21.68-63.49S522.83,1089.22,582.64,1117Z" transform="translate(-246.36 -1092.59)"/><path class="cls-24" d="M513.08,1111.35a62.39,62.39,0,0,0-11.53,11c-3.7,1.74-25.52,12.58-21,24.29,6.1,15.76,30.78,58,32.86,62.4.27.59.28-.52.07-2.89,1.52-14.91,19.87-31.62,19.87-31.62l9.79-4.42a28.65,28.65,0,0,1-3.09-18.37C551.16,1139.81,588,1127,588,1127,582.74,1074.46,537.77,1093,513.08,1111.35Z" transform="translate(-246.36 -1092.59)"/><path class="cls-17" d="M529.75,1162.12c-2.61-4-16.35-3.32-14.34,8.4s18.86,21.12,22.53,15.9S532.52,1166.36,529.75,1162.12Z" transform="translate(-246.36 -1092.59)"/><path class="cls-25" d="M502.47,1232.7s-68.19,39.73-83.58,109.12-43.21,191.23-43.7,205.66c0,0,92.28-44.41,142.26-32.19,0,0,31.47-113.07,48-139.77s-8.05-89.49-8.05-89.49S533.91,1248.36,502.47,1232.7Z" transform="translate(-246.36 -1092.59)"/><path class="cls-26" d="M561,1233.94a110.86,110.86,0,0,0-4.16,12.36c-8.06-3.35-23.43-17.53-23.9-18C539.35,1230.81,561,1233.94,561,1233.94Z" transform="translate(-246.36 -1092.59)"/><path class="cls-25" d="M529,1268.83s7.2,8.26,17.24,25.68c11.38,19.76,20.61,39.28,23.08,43.67,5,8.92,22.74,18.1,30.65,21.49,7.27,3.12,132.72,5.79,134.25,5.65s-1.81,38.1-1.81,38.1-173.17,4.95-180.73-2-29.42-33-38.6-45.94c-8.74-12.34-22.15-32.58-29.26-41.3-8-9.75-24.64-43.11-3.43-59.75C507.51,1233.21,522.5,1259.07,529,1268.83Z" transform="translate(-246.36 -1092.59)"/><path class="cls-27" d="M493.63,1327.45s16.79,49.41,28.49,67.4,19.94,39.47,19.94,39.47l12.11-31.88S505.27,1343.68,493.63,1327.45Z" transform="translate(-246.36 -1092.59)"/><polygon class="cls-28" points="27.93 811.96 32.07 823.61 207.07 769.38 198.69 745.79 27.93 811.96"/><rect class="cls-28" x="193.19" y="570.81" width="19.89" height="190.27"/><rect class="cls-29" x="144.47" y="560.7" width="117.32" height="11.21"/><polygon class="cls-28" points="379.88 811.96 375.73 823.61 200.73 769.38 208.42 744.31 379.88 811.96"/><polygon class="cls-28" points="256.57 822.36 256.57 835.91 200.73 769.38 208.42 744.31 256.57 822.36"/><circle class="cls-30" cx="626.24" cy="1920.76" r="16.36" transform="translate(-1421.12 -87.2) rotate(-45)"/><path class="cls-30" d="M504.32,1920.76A16.36,16.36,0,1,1,488,1904.4,16.35,16.35,0,0,1,504.32,1920.76Z" transform="translate(-246.36 -1092.59)"/><circle class="cls-30" cx="274.28" cy="1920.76" r="16.36" transform="matrix(0.16, -0.99, 0.99, 0.16, -1911.96, 791.23)"/><rect class="cls-28" x="64.93" y="518.23" width="277.94" height="42.47" rx="20.96"/><rect class="cls-28" y="223.02" width="155.93" height="265.47" rx="36.31"/><path class="cls-28" d="M404.07,1642.72c-28.26,0-51.18-9.49-68.13-28.2-38.32-42.31-31.43-116.67-31.12-119.82a10.66,10.66,0,1,1,21.22,2.1c-.08.85-6.18,68.25,25.75,103.44,12.91,14.24,30,21.16,52.28,21.16a10.66,10.66,0,1,1,0,21.32Z" transform="translate(-246.36 -1092.59)"/><path class="cls-31" d="M1161.83,1316.05s-22.95,3.43-56.44,21.22S1131.63,1342.63,1161.83,1316.05Z" transform="translate(-246.36 -1092.59)"/><path class="cls-32" d="M1100.87,1339.85s16.66-31.74,42.54-46.24c0,0-7.51,22-34.82,45.69S1100.87,1339.85,1100.87,1339.85Z" transform="translate(-246.36 -1092.59)"/><path class="cls-33" d="M1087.56,1318.14s-17.19-21-24.07-30.57,14.43,44.69,16.2,50.43S1088.71,1348.71,1087.56,1318.14Z" transform="translate(-246.36 -1092.59)"/><path class="cls-34" d="M1104,1350.62c7.64-11.47,13-63,13-63-13.38,11.08-26,60.91-26,60.91S1096.35,1362.08,1104,1350.62Z" transform="translate(-246.36 -1092.59)"/><path class="cls-35" d="M1102.26,1345.42c2.3-4.87-.76-68.12-2.59-62.38s-12.23,29.42-12.23,29.42C1085.88,1326.82,1100,1350.29,1102.26,1345.42Z" transform="translate(-246.36 -1092.59)"/><path class="cls-36" d="M1084.66,1331.4c-4.05-7.37-44.1-46.89-44.1-46.89.39,12.23,25.22,41.27,25.22,41.27S1088.71,1338.77,1084.66,1331.4Z" transform="translate(-246.36 -1092.59)"/><path class="cls-32" d="M1104,1349.78c-46.24-17-89.8-8.18-89.8-8.18,6.37,8.75,66.87,8.18,66.87,8.18Z" transform="translate(-246.36 -1092.59)"/><path class="cls-37" d="M1094.29,1351.28c-23.5-25.59-78.89-37.92-78.89-37.92,16.37,16.71,39.87,31.37,39.87,31.37S1117.79,1376.87,1094.29,1351.28Z" transform="translate(-246.36 -1092.59)"/><path class="cls-38" d="M1099,1348.48c-13.76-25.44-66.13-50.6-66.13-50.6,0,8,42.44,45.36,42.44,45.36S1112.78,1373.93,1099,1348.48Z" transform="translate(-246.36 -1092.59)"/><path class="cls-39" d="M1098.65,1351c10.3-1.89,48.53-39.36,48.53-39.36-9.94,1.91-48.53,26.36-48.53,26.36S1088.34,1352.89,1098.65,1351Z" transform="translate(-246.36 -1092.59)"/><path class="cls-40" d="M1117,1351.16c13,.55,54.64-25.38,54.64-25.38-12.46,0-41.07,7.55-55.05,11.46a20.74,20.74,0,0,0-12.44,9.75C1096.67,1360.2,1105.67,1350.69,1117,1351.16Z" transform="translate(-246.36 -1092.59)"/><path class="cls-41" d="M1165.13,1339.91c-3.88-.31-28.88.8-39.62,1.3a19,19,0,0,0-11.55,4.54c-4.63,4-3.28,7,3,8.28C1125.4,1355.74,1170.1,1340.3,1165.13,1339.91Z" transform="translate(-246.36 -1092.59)"/><path class="cls-42" d="M1097.57,1346.68a33.24,33.24,0,0,0,.54-12c-1.83-13.61-8.15-55.76-17.42-62.15,0,0-4.19,54.61,4.58,73C1091.85,1359.31,1095.79,1354.21,1097.57,1346.68Z" transform="translate(-246.36 -1092.59)"/><path class="cls-43" d="M1097.5,1354.16c5.26-5,26.66-53.59,26.66-53.59-20,11.72-29,35.49-29,35.49S1092.23,1359.16,1097.5,1354.16Z" transform="translate(-246.36 -1092.59)"/><polygon class="cls-44" points="801.79 265.26 808.4 308.21 886.37 308.21 892.98 265.26 801.79 265.26"/><path class="cls-45" d="M1139.34,1357.85h-91.19l6.61,43h16.4s14-27.5,66.27-30.53Z" transform="translate(-246.36 -1092.59)"/><rect class="cls-44" x="798.17" y="256.01" width="98.43" height="14.35"/></svg>